<?xml version="1.0" encoding="UTF-8"?>
<!-- Generator: Avocode 2.6.0 - http://avocode.com -->
<svg height="16" width="73" xmlns:xlink="http://www.w3.org/1999/xlink" xmlns="http://www.w3.org/2000/svg" viewBox="0 0 73 16">
    <path fill="#ffffff" fill-rule="evenodd" d="M 64.94 0 C 57.6 0 55.08 14.23 58.52 15.86 C 58.72 15.96 58.94 16 59.16 16 C 60.82 16 62.92 13.64 64.89 13.64 C 66.88 13.64 68.97 15.97 70.73 15.97 C 70.94 15.97 71.15 15.94 71.35 15.86 C 75.09 14.44 72.27 0 64.94 0"/>
    <path fill="#ffffff" fill-rule="evenodd" d="M 26 0 C 21.81 0 18 3.58 18 8 C 18 12.42 21.81 16 26 16 C 30.19 16 34 12.42 34 8 C 34 3.58 30.19 0 26 0"/>
    <path fill="#ffffff" fill-rule="evenodd" d="M 38.64 0 C 37.62 0 37 0.62 37 2.46 L 37 13.74 C 37 15.38 37.82 15.79 38.64 15.79 C 40.06 15.79 42.68 12 43.69 12 C 44.7 12 50.16 16 51.37 16 C 52.38 16 52.99 15.18 52.99 13.74 L 52.99 2.67 C 52.99 1.85 53.2 0.21 51.58 0.21 C 50.16 0.21 47.73 4.8 46.92 4.8 C 45.91 4.8 39.86 0 38.64 0"/>
    <path fill="#ffffff" fill-rule="evenodd" d="M 0 1.6 C 0 3.02 4.8 4.79 4.8 5.6 C 4.8 6.61 0 13.14 0 14.36 C 0 15.38 0.62 16 2.47 16 L 14.16 16 C 15.39 16 16 14.98 16 14.36 C 16 12.72 12 10.33 12 9.32 C 12 8.31 16 2.85 16 1.63 C 16 0.62 15.18 0.01 13.75 0.01 C 13.13 0.01 4.03 0 3.2 0 L 3.15 0 C 2.28 0 0 0.02 0 1.6 Z M 0 1.6"/>
</svg>